<svg version="1.0" xmlns="http://www.w3.org/2000/svg" width="266.667" height="266.667" viewBox="0 0 200 200"><path d="M0 100v100h200V0H0v100zm64-52.5V55h-3c-3.7 0-8.5 2.3-9.4 4.5-1 2.6-.7 6.3 1.1 17 1.9 11.6 1.5 14.2-3.1 19.3l-3.4 3.7 3.3 3.7c4.6 5 5.1 8.9 3 21.9-.9 6-1.4 12-1.1 13.4.7 2.9 5.2 5.5 9.6 5.5h3v15h-9.4c-8 0-9.8-.3-12.6-2.3-6.9-4.7-8.7-14.1-5.5-28.7 1.7-7.7 1.9-14.4.5-17-.6-1.1-3-3.3-5.5-5-4.1-2.8-4.5-3.5-4.5-7 0-2.2.4-4 .9-4 .4 0 2.9-1.8 5.5-4.1 4.1-3.6 4.6-4.5 4.6-8.2 0-2.3-.7-7.7-1.5-12-2.1-11.1-1.9-18.9.5-23.7 2.9-5.8 5.8-6.9 17.3-7H64v7.5zm97.4-5.4c6.1 4.8 7.3 11.7 4.6 27.1-1.1 6.2-2 12.5-2 14 0 3.1 4 8.2 8.1 10.4 2.5 1.3 2.9 2 2.9 5.9 0 3.4-.4 4.5-1.9 5-3.3 1-9.1 8.2-9.1 11.3 0 1.5.9 7.7 2 13.8 2.6 15.3 1.5 21.3-5 26.8-2.9 2.4-3.8 2.6-13.1 2.6H138v-14.7l4.5-.6c2.5-.2 5.5-1.3 6.5-2.2 2.4-2.2 2.5-4.9.5-18.4-1.8-11.8-1.2-15.1 3.6-20.5l2.8-3.3-2.4-2.3c-4.3-4.1-5.7-9.5-4.5-17.5.6-3.9 1.4-10 1.7-13.7l.6-6.7-3.4-2c-1.9-1.2-4.9-2.1-6.6-2.1H138V40h10.4c9 0 10.7.3 13 2.1zm-49.8 21.4c-1.9 11-3.2 20.3-2.9 20.7.2.5 5.3.8 11.4.8 6 0 10.9.3 10.9.6 0 .8-43.3 72.5-43.6 72.1-.1-.1 1.3-11.2 3.2-24.7 1.8-13.5 3.3-25.3 3.4-26.2 0-1.5-1.4-1.8-11.9-2l-11.9-.3 22.1-31.3c12.2-17.2 22.3-30.9 22.5-30.4.1.4-1.3 9.7-3.2 20.7z"/><path d="m93.2 84.7-9 12.8 8.9.3 8.9.3v2.7c0 1.5-.7 7.2-1.5 12.7-.8 5.4-1.3 10-1.2 10.1.1.2 4.6-6.9 9.9-15.7l9.7-15.9h-9.4c-11 0-10.4.9-8-12 .7-4.1 1.2-7.6 1.1-7.8-.2-.1-4.4 5.5-9.4 12.5z"/></svg>